<?xml version="1.0" encoding="utf-8" standalone="no"?>
<!DOCTYPE svg PUBLIC "-//W3C//DTD SVG 1.1//EN"
  "http://www.w3.org/Graphics/SVG/1.1/DTD/svg11.dtd">
<!-- Created with matplotlib (http://matplotlib.sourceforge.net/) -->
<svg height="494pt" version="1.1" viewBox="0 0 767 494" width="767pt" xmlns="http://www.w3.org/2000/svg" xmlns:xlink="http://www.w3.org/1999/xlink">
 <defs>
  <style type="text/css">
*{stroke-linecap:square;stroke-linejoin:round;}
  </style>
 </defs>
 <g id="figure_1">
  <g id="patch_1">
   <path d="
M0 494.15
L767.387 494.15
L767.387 0
L0 0
z
" style="fill:#ffffff;"/>
  </g>
  <g id="axes_1">
   <g id="patch_2">
    <path d="
M134.073 448.059
L747.873 448.059
L747.873 29.5594
L134.073 29.5594
z
" style="fill:#ffffff;"/>
   </g>
   <g id="line2d_1">
    <path clip-path="url(#pc3ae031dc6)" d="
M134.073 343.577
L135.607 297.523
L137.142 269.196
L138.676 208.618
L140.211 186.011
L141.745 177.566
L143.28 129.145
L144.814 107.998
L146.349 96.4721
L147.883 115.467
L149.418 74.4161
L150.952 127.784
L152.487 120.494
L154.021 122.382
L155.556 129.198
L157.09 189.67
L158.625 203.934
L160.159 281.627
L161.694 322.893
L163.228 353.149
L166.297 377.108
L169.366 417.635
L172.435 430.979
L173.97 430.428
L175.504 401.462
L177.039 376.774
L178.573 365.859
L180.108 343.577
L181.642 297.523
L183.177 269.196
L184.711 208.618
L186.246 186.011
L187.78 177.566
L189.315 129.145
L190.849 107.998
L192.384 96.4721
L193.918 115.467
L195.453 74.4161
L196.987 127.784
L198.522 120.494
L200.056 122.382
L201.591 129.198
L203.125 189.67
L204.66 203.934
L206.194 281.627
L207.729 322.893
L209.263 353.149
L212.332 377.108
L215.401 417.635
L218.47 430.979
L220.005 430.428
L221.539 401.462
L223.074 376.774
L224.608 365.859
L226.143 343.577
L227.677 297.523
L229.212 269.196
L230.746 208.618
L232.281 186.011
L233.815 177.566
L235.35 129.145
L236.884 107.998
L238.419 96.4721
L239.953 115.467
L241.488 74.4161
L243.022 127.784
L244.557 120.494
L246.091 122.382
L247.626 129.198
L249.16 189.67
L250.695 203.934
L252.229 281.627
L253.764 322.893
L255.298 353.149
L258.367 377.108
L261.436 417.635
L264.505 430.979
L266.04 430.428
L267.574 401.462
L269.109 376.774
L270.643 365.859
L272.178 343.577
L273.712 297.523
L275.247 269.196
L276.781 208.618
L278.316 186.011
L279.85 177.566
L281.385 129.145
L282.919 107.998
L284.454 96.4721
L285.988 115.467
L287.523 74.4161
L289.057 127.784
L290.592 120.494
L292.126 122.382
L293.661 129.198
L295.195 189.67
L296.73 203.934
L298.264 281.627
L299.799 322.893
L301.333 353.149
L304.402 377.108
L307.471 417.635
L310.54 430.979
L312.075 430.428
L313.609 401.462
L315.144 376.774
L316.678 365.859
L318.213 343.577
L319.747 297.523
L321.282 269.196
L322.816 208.618
L324.351 186.011
L325.885 177.566
L327.42 129.145
L328.954 107.998
L330.489 96.4721
L332.023 115.467
L333.558 74.4161
L335.092 127.784
L336.627 120.494
L338.161 122.382
L339.696 129.198
L341.23 189.67
L342.765 203.934
L344.299 281.627
L345.834 322.893
L347.368 353.149
L350.437 377.108
L353.506 417.635
L356.575 430.979
L358.11 430.428
L359.644 401.462
L361.179 376.774
L362.713 365.859
L364.248 343.577
L365.782 297.523
L367.317 269.196
L368.851 208.618
L370.386 186.011
L371.92 177.566
L373.455 129.145
L374.989 107.998
L376.524 96.4721
L378.058 115.467
L379.593 74.4161
L381.127 127.784
L382.662 120.494
L384.196 122.382
L385.731 129.198
L387.265 189.67
L388.8 203.934
L390.334 281.627
L391.869 322.893
L393.403 353.149
L396.472 377.108
L399.541 417.635
L402.61 430.979
L404.145 430.428
L405.679 401.462
L407.214 376.774
L408.748 365.859
L410.283 343.577
L411.817 297.523
L413.352 269.196
L414.886 208.618
L416.421 186.011
L417.955 177.566
L419.49 129.145
L421.024 107.998
L422.559 96.4721
L424.093 115.467
L425.628 74.4161
L427.162 127.784
L428.697 120.494
L430.231 122.382
L431.766 129.198
L433.3 189.67
L434.835 203.934
L436.369 281.627
L437.904 322.893
L439.438 353.149
L442.507 377.108
L445.576 417.635
L448.645 430.979
L450.18 430.428
L451.714 401.462
L453.249 376.774
L454.783 365.859
L456.318 343.577
L457.852 297.523
L459.387 269.196
L460.921 208.618
L462.456 186.011
L463.99 177.566
L465.525 129.145
L467.059 107.998
L468.594 96.4721
L470.128 115.467
L471.663 74.4161
L473.197 127.784
L474.732 120.494
L476.266 122.382
L477.801 129.198
L479.335 189.67
L480.87 203.934
L482.404 281.627
L483.939 322.893
L485.473 353.149
L488.542 377.108
L491.611 417.635
L494.68 430.979
L496.215 430.428
L497.749 401.462
L499.284 376.774
L500.818 365.859
L502.353 343.577
L503.887 297.523
L505.422 269.196
L506.956 208.618
L508.491 186.011
L510.025 177.566
L511.56 129.145
L513.094 107.998
L514.629 96.4721
L516.163 115.467
L517.698 74.4161
L519.232 127.784
L520.767 120.494
L522.301 122.382
L523.836 129.198
L525.37 189.67
L526.905 203.934
L528.439 281.627
L529.974 322.893
L531.508 353.149
L534.577 377.108
L537.646 417.635
L540.715 430.979
L542.25 430.428
L543.784 401.462
L545.319 376.774
L546.853 365.859
L548.388 343.577
L549.922 297.523
L551.457 269.196
L552.991 208.618
L554.526 186.011
L556.06 177.566
L557.595 129.145
L559.129 107.998
L560.664 96.4721
L562.198 115.467
L563.733 74.4161
L565.267 127.784
L566.802 120.494
L568.336 122.382
L569.871 129.198
L571.405 189.67
L572.94 203.934
L574.474 281.627
L576.009 322.893
L577.543 353.149
L580.612 377.108
L583.681 417.635
L586.75 430.979
L588.285 430.428
L589.819 401.462
L591.354 376.774
L592.888 365.859
L594.423 343.577
L595.957 297.523
L597.492 269.196
L599.026 208.618
L600.561 186.011
L602.095 177.566
L603.63 129.145
L605.164 107.998
L606.699 96.4721
L608.233 115.467
L609.768 74.4161
L611.302 127.784
L612.837 120.494
L614.371 122.382
L615.906 129.198
L617.44 189.67
L618.975 203.934
L620.509 281.627
L622.044 322.893
L623.578 353.149
L626.647 377.108
L629.716 417.635
L632.785 430.979
L634.32 430.428
L635.854 401.462
L637.389 376.774
L638.923 365.859
L640.458 343.577
L641.992 297.523
L643.527 269.196
L645.061 208.618
L646.596 186.011
L648.13 177.566
L649.665 129.145
L651.199 107.998
L652.734 96.4721
L654.268 115.467
L655.803 74.4161
L657.337 127.784
L658.872 120.494
L660.406 122.382
L661.941 129.198
L663.475 189.67
L665.01 203.934
L666.544 281.627
L668.079 322.893
L669.613 353.149
L672.682 377.108
L675.751 417.635
L678.82 430.979
L680.355 430.428
L681.889 401.462
L683.424 376.774
L684.958 365.859
L684.958 365.859" style="fill:none;stroke:#008000;stroke-width:2.6;"/>
   </g>
   <g id="matplotlib.axis_1">
    <g id="xtick_1">
     <g id="line2d_2">
      <path clip-path="url(#pc3ae031dc6)" d="
M134.073 448.059
L134.073 29.5594" style="fill:none;stroke:#000000;stroke-dasharray:1.000000,3.000000;stroke-dashoffset:0.0;stroke-linecap:butt;stroke-width:0.5;"/>
     </g>
     <g id="line2d_3">
      <defs>
       <path d="
M0 0
L0 -4" id="m0012dd4eef" style="stroke:#000000;stroke-linecap:butt;stroke-width:0.5;"/>
      </defs>
      <g>
       <use style="stroke:#000000;stroke-linecap:butt;stroke-width:0.5;" x="134.072575976" xlink:href="#m0012dd4eef" y="448.059375"/>
      </g>
     </g>
     <g id="line2d_4">
      <defs>
       <path d="
M0 0
L0 4" id="m476344969c" style="stroke:#000000;stroke-linecap:butt;stroke-width:0.5;"/>
      </defs>
      <g>
       <use style="stroke:#000000;stroke-linecap:butt;stroke-width:0.5;" x="134.072575976" xlink:href="#m476344969c" y="29.559375"/>
      </g>
     </g>
     <g id="text_1">
      <!-- 0 -->
      <defs>
       <path d="
M3.60938 32.7188
Q3.60938 44.0469 7.03125 52.2188
Q10.4531 60.4062 16.1094 64.4062
Q20.5156 67.5781 25.2031 67.5781
Q32.8125 67.5781 38.875 59.8125
Q46.4375 50.2031 46.4375 33.7344
Q46.4375 22.2188 43.1094 14.1562
Q39.7969 6.10938 34.6406 2.46875
Q29.5 -1.17188 24.7031 -1.17188
Q15.2344 -1.17188 8.9375 10.0156
Q3.60938 19.4375 3.60938 32.7188
M13.1875 31.5
Q13.1875 17.8281 16.5469 9.1875
Q19.3438 1.90625 24.8594 1.90625
Q27.4844 1.90625 30.3125 4.26562
Q33.1562 6.64062 34.625 12.2031
Q36.8594 20.6094 36.8594 35.8906
Q36.8594 47.2188 34.5156 54.7812
Q32.7656 60.4062 29.9844 62.75
Q27.9844 64.3594 25.1406 64.3594
Q21.8281 64.3594 19.2344 61.375
Q15.7188 57.3281 14.4531 48.625
Q13.1875 39.9375 13.1875 31.5" id="TimesNewRomanPSMT-30"/>
      </defs>
      <g transform="translate(130.432185351 463.54765625)scale(0.17 -0.17)">
       <use xlink:href="#TimesNewRomanPSMT-30"/>
      </g>
     </g>
    </g>
    <g id="xtick_2">
     <g id="line2d_5">
      <path clip-path="url(#pc3ae031dc6)" d="
M210.798 448.059
L210.798 29.5594" style="fill:none;stroke:#000000;stroke-dasharray:1.000000,3.000000;stroke-dashoffset:0.0;stroke-linecap:butt;stroke-width:0.5;"/>
     </g>
     <g id="line2d_6">
      <g>
       <use style="stroke:#000000;stroke-linecap:butt;stroke-width:0.5;" x="210.797575976" xlink:href="#m0012dd4eef" y="448.059375"/>
      </g>
     </g>
     <g id="line2d_7">
      <g>
       <use style="stroke:#000000;stroke-linecap:butt;stroke-width:0.5;" x="210.797575976" xlink:href="#m476344969c" y="29.559375"/>
      </g>
     </g>
     <g id="text_2">
      <!-- 50 -->
      <defs>
       <path d="
M43.4062 66.2188
L39.5938 57.9062
L19.6719 57.9062
L15.3281 49.0312
Q28.2656 47.125 35.8438 39.4062
Q42.3281 32.7656 42.3281 23.7812
Q42.3281 18.5625 40.2031 14.1094
Q38.0938 9.67188 34.8594 6.54688
Q31.6406 3.42188 27.6875 1.51562
Q22.0781 -1.17188 16.1562 -1.17188
Q10.2031 -1.17188 7.48438 0.84375
Q4.78125 2.875 4.78125 5.32812
Q4.78125 6.6875 5.90625 7.73438
Q7.03125 8.79688 8.73438 8.79688
Q10.0156 8.79688 10.9688 8.40625
Q11.9219 8.01562 14.2031 6.39062
Q17.875 3.85938 21.625 3.85938
Q27.3438 3.85938 31.6562 8.17188
Q35.9844 12.5 35.9844 18.7031
Q35.9844 24.7031 32.125 29.9062
Q28.2656 35.1094 21.4844 37.9375
Q16.1562 40.1406 6.98438 40.4844
L19.6719 66.2188
z
" id="TimesNewRomanPSMT-35"/>
      </defs>
      <g transform="translate(203.006794726 463.54765625)scale(0.17 -0.17)">
       <use xlink:href="#TimesNewRomanPSMT-35"/>
       <use x="50.0" xlink:href="#TimesNewRomanPSMT-30"/>
      </g>
     </g>
    </g>
    <g id="xtick_3">
     <g id="line2d_8">
      <path clip-path="url(#pc3ae031dc6)" d="
M287.523 448.059
L287.523 29.5594" style="fill:none;stroke:#000000;stroke-dasharray:1.000000,3.000000;stroke-dashoffset:0.0;stroke-linecap:butt;stroke-width:0.5;"/>
     </g>
     <g id="line2d_9">
      <g>
       <use style="stroke:#000000;stroke-linecap:butt;stroke-width:0.5;" x="287.522575976" xlink:href="#m0012dd4eef" y="448.059375"/>
      </g>
     </g>
     <g id="line2d_10">
      <g>
       <use style="stroke:#000000;stroke-linecap:butt;stroke-width:0.5;" x="287.522575976" xlink:href="#m476344969c" y="29.559375"/>
      </g>
     </g>
     <g id="text_3">
      <!-- 100 -->
      <defs>
       <path d="
M11.7188 59.7188
L27.8281 67.5781
L29.4375 67.5781
L29.4375 11.6719
Q29.4375 6.10938 29.9062 4.73438
Q30.375 3.375 31.8281 2.64062
Q33.2969 1.90625 37.7969 1.8125
L37.7969 0
L12.8906 0
L12.8906 1.8125
Q17.5781 1.90625 18.9375 2.60938
Q20.3125 3.32812 20.8438 4.51562
Q21.3906 5.71875 21.3906 11.6719
L21.3906 47.4062
Q21.3906 54.6406 20.9062 56.6875
Q20.5625 58.25 19.6562 58.9844
Q18.75 59.7188 17.4844 59.7188
Q15.6719 59.7188 12.4531 58.2031
z
" id="TimesNewRomanPSMT-31"/>
      </defs>
      <g transform="translate(276.071482226 463.54765625)scale(0.17 -0.17)">
       <use xlink:href="#TimesNewRomanPSMT-31"/>
       <use x="50.0" xlink:href="#TimesNewRomanPSMT-30"/>
       <use x="100.0" xlink:href="#TimesNewRomanPSMT-30"/>
      </g>
     </g>
    </g>
    <g id="xtick_4">
     <g id="line2d_11">
      <path clip-path="url(#pc3ae031dc6)" d="
M364.248 448.059
L364.248 29.5594" style="fill:none;stroke:#000000;stroke-dasharray:1.000000,3.000000;stroke-dashoffset:0.0;stroke-linecap:butt;stroke-width:0.5;"/>
     </g>
     <g id="line2d_12">
      <g>
       <use style="stroke:#000000;stroke-linecap:butt;stroke-width:0.5;" x="364.247575976" xlink:href="#m0012dd4eef" y="448.059375"/>
      </g>
     </g>
     <g id="line2d_13">
      <g>
       <use style="stroke:#000000;stroke-linecap:butt;stroke-width:0.5;" x="364.247575976" xlink:href="#m476344969c" y="29.559375"/>
      </g>
     </g>
     <g id="text_4">
      <!-- 150 -->
      <g transform="translate(352.796482226 463.54765625)scale(0.17 -0.17)">
       <use xlink:href="#TimesNewRomanPSMT-31"/>
       <use x="50.0" xlink:href="#TimesNewRomanPSMT-35"/>
       <use x="100.0" xlink:href="#TimesNewRomanPSMT-30"/>
      </g>
     </g>
    </g>
    <g id="xtick_5">
     <g id="line2d_14">
      <path clip-path="url(#pc3ae031dc6)" d="
M440.973 448.059
L440.973 29.5594" style="fill:none;stroke:#000000;stroke-dasharray:1.000000,3.000000;stroke-dashoffset:0.0;stroke-linecap:butt;stroke-width:0.5;"/>
     </g>
     <g id="line2d_15">
      <g>
       <use style="stroke:#000000;stroke-linecap:butt;stroke-width:0.5;" x="440.972575976" xlink:href="#m0012dd4eef" y="448.059375"/>
      </g>
     </g>
     <g id="line2d_16">
      <g>
       <use style="stroke:#000000;stroke-linecap:butt;stroke-width:0.5;" x="440.972575976" xlink:href="#m476344969c" y="29.559375"/>
      </g>
     </g>
     <g id="text_5">
      <!-- 200 -->
      <defs>
       <path d="
M45.8438 12.75
L41.2188 0
L2.15625 0
L2.15625 1.8125
Q19.3906 17.5312 26.4219 27.4844
Q33.4531 37.4531 33.4531 45.7031
Q33.4531 52 29.5938 56.0469
Q25.7344 60.1094 20.3594 60.1094
Q15.4844 60.1094 11.5938 57.25
Q7.71875 54.3906 5.85938 48.875
L4.04688 48.875
Q5.28125 57.9062 10.3281 62.7344
Q15.375 67.5781 22.9531 67.5781
Q31 67.5781 36.3906 62.4062
Q41.7969 57.2344 41.7969 50.2031
Q41.7969 45.1719 39.4531 40.1406
Q35.8438 32.2344 27.7344 23.3906
Q15.5781 10.1094 12.5469 7.375
L29.8281 7.375
Q35.1094 7.375 37.2344 7.76562
Q39.3594 8.15625 41.0625 9.34375
Q42.7812 10.5469 44.0469 12.75
z
" id="TimesNewRomanPSMT-32"/>
      </defs>
      <g transform="translate(428.708669726 463.54765625)scale(0.17 -0.17)">
       <use xlink:href="#TimesNewRomanPSMT-32"/>
       <use x="50.0" xlink:href="#TimesNewRomanPSMT-30"/>
       <use x="100.0" xlink:href="#TimesNewRomanPSMT-30"/>
      </g>
     </g>
    </g>
    <g id="xtick_6">
     <g id="line2d_17">
      <path clip-path="url(#pc3ae031dc6)" d="
M517.698 448.059
L517.698 29.5594" style="fill:none;stroke:#000000;stroke-dasharray:1.000000,3.000000;stroke-dashoffset:0.0;stroke-linecap:butt;stroke-width:0.5;"/>
     </g>
     <g id="line2d_18">
      <g>
       <use style="stroke:#000000;stroke-linecap:butt;stroke-width:0.5;" x="517.697575976" xlink:href="#m0012dd4eef" y="448.059375"/>
      </g>
     </g>
     <g id="line2d_19">
      <g>
       <use style="stroke:#000000;stroke-linecap:butt;stroke-width:0.5;" x="517.697575976" xlink:href="#m476344969c" y="29.559375"/>
      </g>
     </g>
     <g id="text_6">
      <!-- 250 -->
      <g transform="translate(505.433669726 463.54765625)scale(0.17 -0.17)">
       <use xlink:href="#TimesNewRomanPSMT-32"/>
       <use x="50.0" xlink:href="#TimesNewRomanPSMT-35"/>
       <use x="100.0" xlink:href="#TimesNewRomanPSMT-30"/>
      </g>
     </g>
    </g>
    <g id="xtick_7">
     <g id="line2d_20">
      <path clip-path="url(#pc3ae031dc6)" d="
M594.423 448.059
L594.423 29.5594" style="fill:none;stroke:#000000;stroke-dasharray:1.000000,3.000000;stroke-dashoffset:0.0;stroke-linecap:butt;stroke-width:0.5;"/>
     </g>
     <g id="line2d_21">
      <g>
       <use style="stroke:#000000;stroke-linecap:butt;stroke-width:0.5;" x="594.422575976" xlink:href="#m0012dd4eef" y="448.059375"/>
      </g>
     </g>
     <g id="line2d_22">
      <g>
       <use style="stroke:#000000;stroke-linecap:butt;stroke-width:0.5;" x="594.422575976" xlink:href="#m476344969c" y="29.559375"/>
      </g>
     </g>
     <g id="text_7">
      <!-- 300 -->
      <defs>
       <path d="
M5.07812 53.6094
Q7.90625 60.2969 12.2188 63.9375
Q16.5469 67.5781 23 67.5781
Q30.9531 67.5781 35.2031 62.4062
Q38.4219 58.5469 38.4219 54.1562
Q38.4219 46.9219 29.3438 39.2031
Q35.4531 36.8125 38.5781 32.375
Q41.7031 27.9375 41.7031 21.9219
Q41.7031 13.3281 36.2344 7.03125
Q29.1094 -1.17188 15.5781 -1.17188
Q8.89062 -1.17188 6.46875 0.484375
Q4.04688 2.15625 4.04688 4.04688
Q4.04688 5.46875 5.1875 6.54688
Q6.34375 7.625 7.95312 7.625
Q9.1875 7.625 10.4531 7.23438
Q11.2812 6.98438 14.2031 5.4375
Q17.1406 3.90625 18.2656 3.60938
Q20.0625 3.07812 22.125 3.07812
Q27.0938 3.07812 30.7812 6.9375
Q34.4688 10.7969 34.4688 16.0625
Q34.4688 19.9219 32.7656 23.5781
Q31.5 26.3125 29.9844 27.7344
Q27.875 29.6875 24.2188 31.2656
Q20.5625 32.8594 16.75 32.8594
L15.1875 32.8594
L15.1875 34.3281
Q19.0469 34.8125 22.9219 37.1094
Q26.8125 39.4062 28.5625 42.625
Q30.3281 45.8438 30.3281 49.7031
Q30.3281 54.7344 27.1719 57.8281
Q24.0312 60.9375 19.3438 60.9375
Q11.7656 60.9375 6.6875 52.8281
z
" id="TimesNewRomanPSMT-33"/>
      </defs>
      <g transform="translate(582.319372851 463.54765625)scale(0.17 -0.17)">
       <use xlink:href="#TimesNewRomanPSMT-33"/>
       <use x="50.0" xlink:href="#TimesNewRomanPSMT-30"/>
       <use x="100.0" xlink:href="#TimesNewRomanPSMT-30"/>
      </g>
     </g>
    </g>
    <g id="xtick_8">
     <g id="line2d_23">
      <path clip-path="url(#pc3ae031dc6)" d="
M671.148 448.059
L671.148 29.5594" style="fill:none;stroke:#000000;stroke-dasharray:1.000000,3.000000;stroke-dashoffset:0.0;stroke-linecap:butt;stroke-width:0.5;"/>
     </g>
     <g id="line2d_24">
      <g>
       <use style="stroke:#000000;stroke-linecap:butt;stroke-width:0.5;" x="671.147575976" xlink:href="#m0012dd4eef" y="448.059375"/>
      </g>
     </g>
     <g id="line2d_25">
      <g>
       <use style="stroke:#000000;stroke-linecap:butt;stroke-width:0.5;" x="671.147575976" xlink:href="#m476344969c" y="29.559375"/>
      </g>
     </g>
     <g id="text_8">
      <!-- 350 -->
      <g transform="translate(659.044372851 463.54765625)scale(0.17 -0.17)">
       <use xlink:href="#TimesNewRomanPSMT-33"/>
       <use x="50.0" xlink:href="#TimesNewRomanPSMT-35"/>
       <use x="100.0" xlink:href="#TimesNewRomanPSMT-30"/>
      </g>
     </g>
    </g>
    <g id="xtick_9">
     <g id="line2d_26">
      <path clip-path="url(#pc3ae031dc6)" d="
M747.873 448.059
L747.873 29.5594" style="fill:none;stroke:#000000;stroke-dasharray:1.000000,3.000000;stroke-dashoffset:0.0;stroke-linecap:butt;stroke-width:0.5;"/>
     </g>
     <g id="line2d_27">
      <g>
       <use style="stroke:#000000;stroke-linecap:butt;stroke-width:0.5;" x="747.872575976" xlink:href="#m0012dd4eef" y="448.059375"/>
      </g>
     </g>
     <g id="line2d_28">
      <g>
       <use style="stroke:#000000;stroke-linecap:butt;stroke-width:0.5;" x="747.872575976" xlink:href="#m476344969c" y="29.559375"/>
      </g>
     </g>
     <g id="text_9">
      <!-- 400 -->
      <defs>
       <path d="
M46.5312 24.4219
L46.5312 17.4844
L37.6406 17.4844
L37.6406 0
L29.5938 0
L29.5938 17.4844
L1.5625 17.4844
L1.5625 23.7344
L32.2812 67.5781
L37.6406 67.5781
L37.6406 24.4219
z

M29.5938 24.4219
L29.5938 57.2812
L6.34375 24.4219
z
" id="TimesNewRomanPSMT-34"/>
      </defs>
      <g transform="translate(735.558200976 463.54765625)scale(0.17 -0.17)">
       <use xlink:href="#TimesNewRomanPSMT-34"/>
       <use x="50.0" xlink:href="#TimesNewRomanPSMT-30"/>
       <use x="100.0" xlink:href="#TimesNewRomanPSMT-30"/>
      </g>
     </g>
    </g>
    <g id="text_10">
     <!-- Day of the Year -->
     <defs>
      <path d="
M16.2188 46.0469
L16.2188 35.9844
Q21.8281 46.0469 27.7344 46.0469
Q30.4219 46.0469 32.1719 44.4062
Q33.9375 42.7812 33.9375 40.625
Q33.9375 38.7188 32.6562 37.3906
Q31.3906 36.0781 29.6406 36.0781
Q27.9375 36.0781 25.8125 37.7656
Q23.6875 39.4531 22.6562 39.4531
Q21.7812 39.4531 20.75 38.4844
Q18.5625 36.4688 16.2188 31.8906
L16.2188 10.4531
Q16.2188 6.73438 17.1406 4.82812
Q17.7812 3.51562 19.3906 2.64062
Q21 1.76562 24.0312 1.76562
L24.0312 0
L1.125 0
L1.125 1.76562
Q4.54688 1.76562 6.20312 2.82812
Q7.42188 3.60938 7.90625 5.32812
Q8.15625 6.15625 8.15625 10.0625
L8.15625 27.3906
Q8.15625 35.2031 7.82812 36.6875
Q7.51562 38.1875 6.65625 38.8594
Q5.8125 39.5469 4.54688 39.5469
Q3.03125 39.5469 1.125 38.8125
L0.640625 40.5781
L14.1562 46.0469
z
" id="TimesNewRomanPSMT-72"/>
      <path d="
M25 46.0469
Q35.1562 46.0469 41.3125 38.3281
Q46.5312 31.7344 46.5312 23.1875
Q46.5312 17.1875 43.6406 11.0312
Q40.7656 4.89062 35.7188 1.75
Q30.6719 -1.375 24.4688 -1.375
Q14.3594 -1.375 8.40625 6.6875
Q3.375 13.4844 3.375 21.9219
Q3.375 28.0781 6.42188 34.1562
Q9.46875 40.2344 14.4531 43.1406
Q19.4375 46.0469 25 46.0469
M23.4844 42.875
Q20.9062 42.875 18.2812 41.3281
Q15.6719 39.7969 14.0625 35.9375
Q12.4531 32.0781 12.4531 26.0312
Q12.4531 16.2656 16.3281 9.17188
Q20.2188 2.09375 26.5625 2.09375
Q31.2969 2.09375 34.375 6
Q37.4531 9.90625 37.4531 19.4375
Q37.4531 31.3438 32.3281 38.1875
Q28.8594 42.875 23.4844 42.875" id="TimesNewRomanPSMT-6f"/>
      <path id="TimesNewRomanPSMT-20"/>
      <path d="
M0.59375 44.7344
L21.4375 44.7344
L21.4375 42.9219
L20.4062 42.9219
Q18.2188 42.9219 17.1094 41.9688
Q16.0156 41.0156 16.0156 39.5938
Q16.0156 37.7031 17.625 34.3281
L28.5156 11.7656
L38.5312 36.4688
Q39.3594 38.4844 39.3594 40.4375
Q39.3594 41.3125 39.0156 41.75
Q38.625 42.2812 37.7969 42.5938
Q36.9688 42.9219 34.8594 42.9219
L34.8594 44.7344
L49.4219 44.7344
L49.4219 42.9219
Q47.6094 42.7188 46.625 42.125
Q45.6562 41.5469 44.4844 39.9375
Q44.0469 39.2656 42.8281 36.1875
L24.6094 -8.45312
Q21.9688 -14.9375 17.6875 -18.25
Q13.4219 -21.5781 9.46875 -21.5781
Q6.59375 -21.5781 4.73438 -19.9219
Q2.875 -18.2656 2.875 -16.1094
Q2.875 -14.0625 4.21875 -12.8125
Q5.5625 -11.5781 7.90625 -11.5781
Q9.51562 -11.5781 12.3125 -12.6406
Q14.2656 -13.375 14.75 -13.375
Q16.2188 -13.375 17.9375 -11.8594
Q19.6719 -10.3594 21.4375 -6
L24.6094 1.76562
L8.54688 35.5
Q7.8125 37.0156 6.20312 39.2656
Q4.98438 40.9688 4.20312 41.5469
Q3.07812 42.3281 0.59375 42.9219
z
" id="TimesNewRomanPSMT-79"/>
      <path d="
M1.70312 0
L1.70312 1.8125
L4.20312 1.8125
Q8.40625 1.8125 10.1562 4.5
Q11.2344 6.10938 11.2344 11.7188
L11.2344 54.5
Q11.2344 60.6875 9.85938 62.25
Q7.95312 64.4062 4.20312 64.4062
L1.70312 64.4062
L1.70312 66.2188
L28.6562 66.2188
Q43.5 66.2188 51.2344 62.8438
Q58.9844 59.4688 63.6875 51.6094
Q68.4062 43.75 68.4062 33.4531
Q68.4062 19.625 60.0156 10.3594
Q50.5938 0 31.2969 0
z

M20.6094 4.78125
Q26.8125 3.42188 31 3.42188
Q42.3281 3.42188 49.7969 11.375
Q57.2812 19.3438 57.2812 32.9531
Q57.2812 46.6875 49.7969 54.5938
Q42.3281 62.5 30.6094 62.5
Q26.2188 62.5 20.6094 61.0781
z
" id="TimesNewRomanPSMT-44"/>
      <path d="
M16.2656 69.4375
L16.2656 36.7188
Q21.6875 42.6719 24.8594 44.3594
Q28.0312 46.0469 31.2031 46.0469
Q35.0156 46.0469 37.75 43.9375
Q40.4844 41.8438 41.7969 37.3594
Q42.7188 34.2344 42.7188 25.9219
L42.7188 10.1094
Q42.7188 5.85938 43.4062 4.29688
Q43.8906 3.125 45.0625 2.4375
Q46.2344 1.76562 49.3594 1.76562
L49.3594 0
L27.3906 0
L27.3906 1.76562
L28.4219 1.76562
Q31.5469 1.76562 32.7656 2.70312
Q33.9844 3.65625 34.4688 5.51562
Q34.625 6.29688 34.625 10.1094
L34.625 25.9219
Q34.625 33.25 33.8594 35.5469
Q33.1094 37.8438 31.4375 38.9844
Q29.7812 40.1406 27.4375 40.1406
Q25.0469 40.1406 22.4531 38.8594
Q19.875 37.5938 16.2656 33.7344
L16.2656 10.1094
Q16.2656 5.51562 16.7656 4.39062
Q17.2812 3.26562 18.6719 2.51562
Q20.0625 1.76562 23.4844 1.76562
L23.4844 0
L1.3125 0
L1.3125 1.76562
Q4.29688 1.76562 6 2.6875
Q6.98438 3.17188 7.5625 4.53125
Q8.15625 5.90625 8.15625 10.1094
L8.15625 50.5938
Q8.15625 58.25 7.78125 60
Q7.42188 61.7656 6.65625 62.3906
Q5.90625 63.0312 4.64062 63.0312
Q3.60938 63.0312 1.3125 62.25
L0.640625 63.9688
L14.0156 69.4375
z
" id="TimesNewRomanPSMT-68"/>
      <path d="
M20.6094 41.2188
L20.6094 11.8125
Q20.6094 5.5625 21.9688 3.90625
Q23.7812 1.76562 26.8125 1.76562
L30.8594 1.76562
L30.8594 0
L4.15625 0
L4.15625 1.76562
L6.15625 1.76562
Q8.10938 1.76562 9.71875 2.73438
Q11.3281 3.71875 11.9375 5.375
Q12.5469 7.03125 12.5469 11.8125
L12.5469 41.2188
L3.85938 41.2188
L3.85938 44.7344
L12.5469 44.7344
L12.5469 47.6562
Q12.5469 54.3438 14.6875 58.9844
Q16.8438 63.625 21.2656 66.4844
Q25.6875 69.3438 31.2031 69.3438
Q36.3281 69.3438 40.625 66.0156
Q43.4531 63.8125 43.4531 61.0781
Q43.4531 59.625 42.1875 58.3281
Q40.9219 57.0312 39.4531 57.0312
Q38.3281 57.0312 37.0781 57.8281
Q35.8438 58.6406 34.0312 61.2969
Q32.2344 63.9688 30.7188 64.8906
Q29.2031 65.8281 27.3438 65.8281
Q25.0938 65.8281 23.5312 64.625
Q21.9688 63.4219 21.2812 60.9062
Q20.6094 58.4062 20.6094 47.9531
L20.6094 44.7344
L32.125 44.7344
L32.125 41.2188
z
" id="TimesNewRomanPSMT-66"/>
      <path d="
M47.6562 66.2188
L70.75 66.2188
L70.75 64.4062
L69.4844 64.4062
Q68.2188 64.4062 65.7656 63.2812
Q63.3281 62.1562 61.3281 60.0469
Q59.3281 57.9531 56.3906 53.2188
L40.4375 28.0781
L40.4375 11.4688
Q40.4375 5.375 41.7969 3.85938
Q43.6562 1.8125 47.6562 1.8125
L49.8125 1.8125
L49.8125 0
L21.6875 0
L21.6875 1.8125
L24.0312 1.8125
Q28.2188 1.8125 29.9844 4.34375
Q31.0625 5.90625 31.0625 11.4688
L31.0625 27.1562
L12.8906 54.8906
Q9.67188 59.7656 8.51562 60.9844
Q7.375 62.2031 3.76562 63.9219
Q2.78125 64.4062 0.921875 64.4062
L0.921875 66.2188
L29.25 66.2188
L29.25 64.4062
L27.7812 64.4062
Q25.4844 64.4062 23.5469 63.3281
Q21.625 62.25 21.625 60.1094
Q21.625 58.3438 24.6094 53.7656
L38.4219 32.4219
L51.4219 52.8281
Q54.3438 57.4219 54.3438 59.6719
Q54.3438 61.0312 53.6406 62.1094
Q52.9375 63.1875 51.6094 63.7969
Q50.2969 64.4062 47.6562 64.4062
z
" id="TimesNewRomanPSMT-59"/>
      <path d="
M10.6406 27.875
Q10.5938 17.9219 15.4844 12.25
Q20.3594 6.59375 26.9531 6.59375
Q31.3438 6.59375 34.5938 9
Q37.8438 11.4219 40.0469 17.2812
L41.5469 16.3125
Q40.5312 9.625 35.5938 4.125
Q30.6719 -1.375 23.25 -1.375
Q15.1875 -1.375 9.45312 4.90625
Q3.71875 11.1875 3.71875 21.7812
Q3.71875 33.25 9.59375 39.6719
Q15.4844 46.0938 24.3594 46.0938
Q31.8906 46.0938 36.7188 41.1406
Q41.5469 36.1875 41.5469 27.875
z

M10.6406 30.7188
L31.3438 30.7188
Q31.1094 35.0156 30.3281 36.7656
Q29.1094 39.5 26.6875 41.0625
Q24.2656 42.625 21.625 42.625
Q17.5781 42.625 14.375 39.4688
Q11.1875 36.3281 10.6406 30.7188" id="TimesNewRomanPSMT-65"/>
      <path d="
M16.1094 59.4219
L16.1094 44.7344
L26.5625 44.7344
L26.5625 41.3125
L16.1094 41.3125
L16.1094 12.3125
Q16.1094 7.95312 17.3594 6.4375
Q18.6094 4.9375 20.5625 4.9375
Q22.1719 4.9375 23.6875 5.9375
Q25.2031 6.9375 26.0312 8.89062
L27.9375 8.89062
Q26.2188 4.10938 23.0938 1.6875
Q19.9688 -0.734375 16.6562 -0.734375
Q14.4062 -0.734375 12.25 0.515625
Q10.1094 1.76562 9.07812 4.07812
Q8.0625 6.39062 8.0625 11.2344
L8.0625 41.3125
L0.984375 41.3125
L0.984375 42.9219
Q3.65625 44 6.46875 46.5625
Q9.28125 49.125 11.4688 52.6406
Q12.5938 54.5 14.5938 59.4219
z
" id="TimesNewRomanPSMT-74"/>
      <path d="
M28.4688 6.45312
Q21.5781 1.125 19.8281 0.296875
Q17.1875 -0.921875 14.2031 -0.921875
Q9.57812 -0.921875 6.5625 2.25
Q3.5625 5.42188 3.5625 10.5938
Q3.5625 13.875 5.03125 16.2656
Q7.03125 19.5781 11.9844 22.5
Q16.9375 25.4375 28.4688 29.6406
L28.4688 31.3906
Q28.4688 38.0938 26.3438 40.5781
Q24.2188 43.0625 20.1719 43.0625
Q17.0938 43.0625 15.2812 41.4062
Q13.4219 39.75 13.4219 37.5938
L13.5312 34.7656
Q13.5312 32.5156 12.375 31.2969
Q11.2344 30.0781 9.375 30.0781
Q7.5625 30.0781 6.42188 31.3438
Q5.28125 32.625 5.28125 34.8125
Q5.28125 39.0156 9.57812 42.5312
Q13.875 46.0469 21.625 46.0469
Q27.5938 46.0469 31.3906 44.0469
Q34.2812 42.5312 35.6406 39.3125
Q36.5312 37.2031 36.5312 30.7188
L36.5312 15.5312
Q36.5312 9.125 36.7656 7.6875
Q37.0156 6.25 37.5781 5.76562
Q38.1406 5.28125 38.875 5.28125
Q39.6562 5.28125 40.2344 5.60938
Q41.2656 6.25 44.1875 9.1875
L44.1875 6.45312
Q38.7188 -0.875 33.7344 -0.875
Q31.3438 -0.875 29.9219 0.78125
Q28.5156 2.4375 28.4688 6.45312
M28.4688 9.625
L28.4688 26.6562
Q21.0938 23.7344 18.9531 22.5156
Q15.0938 20.3594 13.4219 18.0156
Q11.7656 15.6719 11.7656 12.8906
Q11.7656 9.375 13.8594 7.04688
Q15.9688 4.73438 18.7031 4.73438
Q22.4062 4.73438 28.4688 9.625" id="TimesNewRomanPSMT-61"/>
     </defs>
     <g transform="translate(378.146013476 482.634375)scale(0.2 -0.2)">
      <use xlink:href="#TimesNewRomanPSMT-44"/>
      <use x="72.216796875" xlink:href="#TimesNewRomanPSMT-61"/>
      <use x="116.6015625" xlink:href="#TimesNewRomanPSMT-79"/>
      <use x="166.6015625" xlink:href="#TimesNewRomanPSMT-20"/>
      <use x="191.6015625" xlink:href="#TimesNewRomanPSMT-6f"/>
      <use x="241.6015625" xlink:href="#TimesNewRomanPSMT-66"/>
      <use x="274.90234375" xlink:href="#TimesNewRomanPSMT-20"/>
      <use x="299.90234375" xlink:href="#TimesNewRomanPSMT-74"/>
      <use x="327.685546875" xlink:href="#TimesNewRomanPSMT-68"/>
      <use x="377.685546875" xlink:href="#TimesNewRomanPSMT-65"/>
      <use x="422.0703125" xlink:href="#TimesNewRomanPSMT-20"/>
      <use x="443.3203125" xlink:href="#TimesNewRomanPSMT-59"/>
      <use x="505.537109375" xlink:href="#TimesNewRomanPSMT-65"/>
      <use x="549.921875" xlink:href="#TimesNewRomanPSMT-61"/>
      <use x="594.306640625" xlink:href="#TimesNewRomanPSMT-72"/>
     </g>
    </g>
   </g>
   <g id="matplotlib.axis_2">
    <g id="ytick_1">
     <g id="line2d_29">
      <path clip-path="url(#pc3ae031dc6)" d="
M134.073 448.059
L747.873 448.059" style="fill:none;stroke:#000000;stroke-dasharray:1.000000,3.000000;stroke-dashoffset:0.0;stroke-linecap:butt;stroke-width:0.5;"/>
     </g>
     <g id="line2d_30">
      <defs>
       <path d="
M0 0
L4 0" id="me8a85f7bf6" style="stroke:#000000;stroke-linecap:butt;stroke-width:0.5;"/>
      </defs>
      <g>
       <use style="stroke:#000000;stroke-linecap:butt;stroke-width:0.5;" x="134.072575976" xlink:href="#me8a85f7bf6" y="448.059375"/>
      </g>
     </g>
     <g id="line2d_31">
      <defs>
       <path d="
M0 0
L-4 0" id="m1a32005dea" style="stroke:#000000;stroke-linecap:butt;stroke-width:0.5;"/>
      </defs>
      <g>
       <use style="stroke:#000000;stroke-linecap:butt;stroke-width:0.5;" x="747.872575976" xlink:href="#m1a32005dea" y="448.059375"/>
      </g>
     </g>
     <g id="text_11">
      <!-- 1.5 -->
      <defs>
       <path d="
M12.5 9.46875
Q14.7969 9.46875 16.3594 7.875
Q17.9219 6.29688 17.9219 4.04688
Q17.9219 1.8125 16.3281 0.21875
Q14.75 -1.375 12.5 -1.375
Q10.25 -1.375 8.65625 0.21875
Q7.07812 1.8125 7.07812 4.04688
Q7.07812 6.34375 8.65625 7.90625
Q10.25 9.46875 12.5 9.46875" id="TimesNewRomanPSMT-2e"/>
      </defs>
      <g transform="translate(111.935700976 453.686640625)scale(0.17 -0.17)">
       <use xlink:href="#TimesNewRomanPSMT-31"/>
       <use x="50.0" xlink:href="#TimesNewRomanPSMT-2e"/>
       <use x="75.0" xlink:href="#TimesNewRomanPSMT-35"/>
      </g>
     </g>
    </g>
    <g id="ytick_2">
     <g id="line2d_32">
      <path clip-path="url(#pc3ae031dc6)" d="
M134.073 364.359
L747.873 364.359" style="fill:none;stroke:#000000;stroke-dasharray:1.000000,3.000000;stroke-dashoffset:0.0;stroke-linecap:butt;stroke-width:0.5;"/>
     </g>
     <g id="line2d_33">
      <g>
       <use style="stroke:#000000;stroke-linecap:butt;stroke-width:0.5;" x="134.072575976" xlink:href="#me8a85f7bf6" y="364.359375"/>
      </g>
     </g>
     <g id="line2d_34">
      <g>
       <use style="stroke:#000000;stroke-linecap:butt;stroke-width:0.5;" x="747.872575976" xlink:href="#m1a32005dea" y="364.359375"/>
      </g>
     </g>
     <g id="text_12">
      <!-- 2.0 -->
      <g transform="translate(109.794763476 369.986640625)scale(0.17 -0.17)">
       <use xlink:href="#TimesNewRomanPSMT-32"/>
       <use x="50.0" xlink:href="#TimesNewRomanPSMT-2e"/>
       <use x="75.0" xlink:href="#TimesNewRomanPSMT-30"/>
      </g>
     </g>
    </g>
    <g id="ytick_3">
     <g id="line2d_35">
      <path clip-path="url(#pc3ae031dc6)" d="
M134.073 280.659
L747.873 280.659" style="fill:none;stroke:#000000;stroke-dasharray:1.000000,3.000000;stroke-dashoffset:0.0;stroke-linecap:butt;stroke-width:0.5;"/>
     </g>
     <g id="line2d_36">
      <g>
       <use style="stroke:#000000;stroke-linecap:butt;stroke-width:0.5;" x="134.072575976" xlink:href="#me8a85f7bf6" y="280.659375"/>
      </g>
     </g>
     <g id="line2d_37">
      <g>
       <use style="stroke:#000000;stroke-linecap:butt;stroke-width:0.5;" x="747.872575976" xlink:href="#m1a32005dea" y="280.659375"/>
      </g>
     </g>
     <g id="text_13">
      <!-- 2.5 -->
      <g transform="translate(110.310075976 286.286640625)scale(0.17 -0.17)">
       <use xlink:href="#TimesNewRomanPSMT-32"/>
       <use x="50.0" xlink:href="#TimesNewRomanPSMT-2e"/>
       <use x="75.0" xlink:href="#TimesNewRomanPSMT-35"/>
      </g>
     </g>
    </g>
    <g id="ytick_4">
     <g id="line2d_38">
      <path clip-path="url(#pc3ae031dc6)" d="
M134.073 196.959
L747.873 196.959" style="fill:none;stroke:#000000;stroke-dasharray:1.000000,3.000000;stroke-dashoffset:0.0;stroke-linecap:butt;stroke-width:0.5;"/>
     </g>
     <g id="line2d_39">
      <g>
       <use style="stroke:#000000;stroke-linecap:butt;stroke-width:0.5;" x="134.072575976" xlink:href="#me8a85f7bf6" y="196.959375"/>
      </g>
     </g>
     <g id="line2d_40">
      <g>
       <use style="stroke:#000000;stroke-linecap:butt;stroke-width:0.5;" x="747.872575976" xlink:href="#m1a32005dea" y="196.959375"/>
      </g>
     </g>
     <g id="text_14">
      <!-- 3.0 -->
      <g transform="translate(110.116169726 202.586640625)scale(0.17 -0.17)">
       <use xlink:href="#TimesNewRomanPSMT-33"/>
       <use x="50.0" xlink:href="#TimesNewRomanPSMT-2e"/>
       <use x="75.0" xlink:href="#TimesNewRomanPSMT-30"/>
      </g>
     </g>
    </g>
    <g id="ytick_5">
     <g id="line2d_41">
      <path clip-path="url(#pc3ae031dc6)" d="
M134.073 113.259
L747.873 113.259" style="fill:none;stroke:#000000;stroke-dasharray:1.000000,3.000000;stroke-dashoffset:0.0;stroke-linecap:butt;stroke-width:0.5;"/>
     </g>
     <g id="line2d_42">
      <g>
       <use style="stroke:#000000;stroke-linecap:butt;stroke-width:0.5;" x="134.072575976" xlink:href="#me8a85f7bf6" y="113.259375"/>
      </g>
     </g>
     <g id="line2d_43">
      <g>
       <use style="stroke:#000000;stroke-linecap:butt;stroke-width:0.5;" x="747.872575976" xlink:href="#m1a32005dea" y="113.259375"/>
      </g>
     </g>
     <g id="text_15">
      <!-- 3.5 -->
      <g transform="translate(110.631482226 118.886640625)scale(0.17 -0.17)">
       <use xlink:href="#TimesNewRomanPSMT-33"/>
       <use x="50.0" xlink:href="#TimesNewRomanPSMT-2e"/>
       <use x="75.0" xlink:href="#TimesNewRomanPSMT-35"/>
      </g>
     </g>
    </g>
    <g id="ytick_6">
     <g id="line2d_44">
      <path clip-path="url(#pc3ae031dc6)" d="
M134.073 29.5594
L747.873 29.5594" style="fill:none;stroke:#000000;stroke-dasharray:1.000000,3.000000;stroke-dashoffset:0.0;stroke-linecap:butt;stroke-width:0.5;"/>
     </g>
     <g id="line2d_45">
      <g>
       <use style="stroke:#000000;stroke-linecap:butt;stroke-width:0.5;" x="134.072575976" xlink:href="#me8a85f7bf6" y="29.559375"/>
      </g>
     </g>
     <g id="line2d_46">
      <g>
       <use style="stroke:#000000;stroke-linecap:butt;stroke-width:0.5;" x="747.872575976" xlink:href="#m1a32005dea" y="29.559375"/>
      </g>
     </g>
     <g id="text_16">
      <!-- 4.0 -->
      <g transform="translate(109.693825976 35.186640625)scale(0.17 -0.17)">
       <use xlink:href="#TimesNewRomanPSMT-34"/>
       <use x="50.0" xlink:href="#TimesNewRomanPSMT-2e"/>
       <use x="75.0" xlink:href="#TimesNewRomanPSMT-30"/>
      </g>
     </g>
    </g>
    <g id="text_17">
     <!-- Car Sales 100,000 -->
     <defs>
      <path d="
M45.8438 67.7188
L45.8438 44.8281
L44.0469 44.8281
Q43.1719 51.4219 40.8906 55.3281
Q38.625 59.2344 34.4219 61.5156
Q30.2188 63.8125 25.7344 63.8125
Q20.6562 63.8125 17.3281 60.7188
Q14.0156 57.625 14.0156 53.6562
Q14.0156 50.6406 16.1094 48.1406
Q19.1406 44.4844 30.5156 38.375
Q39.7969 33.4062 43.1875 30.7344
Q46.5781 28.0781 48.4062 24.4531
Q50.25 20.8438 50.25 16.8906
Q50.25 9.375 44.4062 3.92188
Q38.5781 -1.51562 29.3906 -1.51562
Q26.5156 -1.51562 23.9688 -1.07812
Q22.4688 -0.828125 17.7031 0.703125
Q12.9375 2.25 11.6719 2.25
Q10.4531 2.25 9.73438 1.51562
Q9.03125 0.78125 8.6875 -1.51562
L6.89062 -1.51562
L6.89062 21.1875
L8.6875 21.1875
Q9.96875 14.0625 12.1094 10.5156
Q14.2656 6.98438 18.6719 4.64062
Q23.0938 2.29688 28.375 2.29688
Q34.4688 2.29688 38 5.51562
Q41.5469 8.73438 41.5469 13.1406
Q41.5469 15.5781 40.2031 18.0625
Q38.875 20.5625 36.0312 22.7031
Q34.125 24.1719 25.625 28.9219
Q17.1406 33.6875 13.5469 36.5156
Q9.96875 39.3594 8.10938 42.7656
Q6.25 46.1875 6.25 50.2969
Q6.25 57.4219 11.7188 62.5625
Q17.1875 67.7188 25.6406 67.7188
Q30.9062 67.7188 36.8125 65.1406
Q39.5469 63.9219 40.6719 63.9219
Q41.9375 63.9219 42.75 64.6719
Q43.5625 65.4375 44.0469 67.7188
z
" id="TimesNewRomanPSMT-53"/>
      <path d="
M5.375 -16.6562
L5.375 -14.5
Q10.4062 -12.8438 13.1562 -9.34375
Q15.9219 -5.85938 15.9219 -1.95312
Q15.9219 -1.03125 15.4844 -0.390625
Q15.1406 0.046875 14.7969 0.046875
Q14.2656 0.046875 12.4531 -0.921875
Q11.5781 -1.375 10.5938 -1.375
Q8.20312 -1.375 6.78125 0.046875
Q5.375 1.46875 5.375 3.95312
Q5.375 6.34375 7.20312 8.04688
Q9.03125 9.76562 11.6719 9.76562
Q14.8906 9.76562 17.4062 6.95312
Q19.9219 4.15625 19.9219 -0.484375
Q19.9219 -5.51562 16.4219 -9.82812
Q12.9375 -14.1562 5.375 -16.6562" id="TimesNewRomanPSMT-2c"/>
      <path d="
M32.0312 46.0469
L32.0312 30.8125
L30.4219 30.8125
Q28.5625 37.9844 25.6562 40.5781
Q22.75 43.1719 18.2656 43.1719
Q14.8438 43.1719 12.7344 41.3594
Q10.6406 39.5469 10.6406 37.3594
Q10.6406 34.625 12.2031 32.6719
Q13.7188 30.6719 18.3594 28.4219
L25.4844 24.9531
Q35.4062 20.125 35.4062 12.2031
Q35.4062 6.10938 30.7812 2.35938
Q26.1719 -1.375 20.4531 -1.375
Q16.3594 -1.375 11.0781 0.09375
Q9.46875 0.59375 8.45312 0.59375
Q7.32812 0.59375 6.6875 -0.6875
L5.07812 -0.6875
L5.07812 15.2812
L6.6875 15.2812
Q8.0625 8.45312 11.9062 4.98438
Q15.7656 1.51562 20.5625 1.51562
Q23.9219 1.51562 26.0469 3.48438
Q28.1719 5.46875 28.1719 8.25
Q28.1719 11.625 25.7969 13.9219
Q23.4375 16.2188 16.3594 19.7344
Q9.28125 23.25 7.07812 26.0781
Q4.89062 28.8594 4.89062 33.1094
Q4.89062 38.625 8.67188 42.3281
Q12.4531 46.0469 18.4531 46.0469
Q21.0938 46.0469 24.8594 44.9219
Q27.3438 44.1875 28.1719 44.1875
Q28.9531 44.1875 29.3906 44.5312
Q29.8281 44.875 30.4219 46.0469
z
" id="TimesNewRomanPSMT-73"/>
      <path d="
M60.2031 67.7188
L61.7188 45.2188
L60.2031 45.2188
Q57.1719 55.3281 51.5625 59.7656
Q45.9531 64.2031 38.0938 64.2031
Q31.5 64.2031 26.1719 60.8594
Q20.8438 57.5156 17.7969 50.1875
Q14.75 42.875 14.75 31.9844
Q14.75 23 17.625 16.4062
Q20.5156 9.8125 26.2969 6.29688
Q32.0781 2.78125 39.5 2.78125
Q45.9531 2.78125 50.875 5.53125
Q55.8125 8.29688 61.7188 16.5
L63.2344 15.5312
Q58.25 6.6875 51.6094 2.57812
Q44.9688 -1.51562 35.8438 -1.51562
Q19.3906 -1.51562 10.3594 10.6875
Q3.60938 19.7812 3.60938 32.0781
Q3.60938 42 8.04688 50.2969
Q12.5 58.5938 20.2812 63.1562
Q28.0781 67.7188 37.3125 67.7188
Q44.4844 67.7188 51.4688 64.2031
Q53.5156 63.1406 54.3906 63.1406
Q55.7188 63.1406 56.6875 64.0625
Q57.9531 65.375 58.5 67.7188
z
" id="TimesNewRomanPSMT-43"/>
      <path d="
M18.5 69.4375
L18.5 10.1094
Q18.5 5.90625 19.1094 4.53125
Q19.7344 3.17188 21 2.46875
Q22.2656 1.76562 25.7344 1.76562
L25.7344 0
L3.8125 0
L3.8125 1.76562
Q6.89062 1.76562 8 2.39062
Q9.125 3.03125 9.76562 4.48438
Q10.4062 5.95312 10.4062 10.1094
L10.4062 50.7344
Q10.4062 58.2969 10.0625 60.0312
Q9.71875 61.7656 8.95312 62.3906
Q8.20312 63.0312 7.03125 63.0312
Q5.76562 63.0312 3.8125 62.25
L2.98438 63.9688
L16.3125 69.4375
z
" id="TimesNewRomanPSMT-6c"/>
     </defs>
     <g transform="translate(21.3047742626 299.962213626)rotate(-55.0)scale(0.2 -0.2)">
      <use xlink:href="#TimesNewRomanPSMT-43"/>
      <use x="66.69921875" xlink:href="#TimesNewRomanPSMT-61"/>
      <use x="111.083984375" xlink:href="#TimesNewRomanPSMT-72"/>
      <use x="144.384765625" xlink:href="#TimesNewRomanPSMT-20"/>
      <use x="169.384765625" xlink:href="#TimesNewRomanPSMT-53"/>
      <use x="225.0" xlink:href="#TimesNewRomanPSMT-61"/>
      <use x="269.384765625" xlink:href="#TimesNewRomanPSMT-6c"/>
      <use x="297.16796875" xlink:href="#TimesNewRomanPSMT-65"/>
      <use x="341.552734375" xlink:href="#TimesNewRomanPSMT-73"/>
      <use x="380.46875" xlink:href="#TimesNewRomanPSMT-20"/>
      <use x="405.46875" xlink:href="#TimesNewRomanPSMT-31"/>
      <use x="455.46875" xlink:href="#TimesNewRomanPSMT-30"/>
      <use x="505.46875" xlink:href="#TimesNewRomanPSMT-30"/>
      <use x="555.46875" xlink:href="#TimesNewRomanPSMT-2c"/>
      <use x="580.46875" xlink:href="#TimesNewRomanPSMT-30"/>
      <use x="630.46875" xlink:href="#TimesNewRomanPSMT-30"/>
      <use x="680.46875" xlink:href="#TimesNewRomanPSMT-30"/>
     </g>
    </g>
   </g>
   <g id="patch_3">
    <path d="
M134.073 29.5594
L747.873 29.5594" style="fill:none;stroke:#000000;"/>
   </g>
   <g id="patch_4">
    <path d="
M747.873 448.059
L747.873 29.5594" style="fill:none;stroke:#000000;"/>
   </g>
   <g id="patch_5">
    <path d="
M134.073 448.059
L747.873 448.059" style="fill:none;stroke:#000000;"/>
   </g>
   <g id="patch_6">
    <path d="
M134.073 448.059
L134.073 29.5594" style="fill:none;stroke:#000000;"/>
   </g>
   <g id="text_18">
    <!-- Trend Car Sales 2011 - Daily -->
    <defs>
     <path d="
M14.5 69.4375
Q16.5469 69.4375 17.9844 67.9844
Q19.4375 66.5469 19.4375 64.5
Q19.4375 62.4531 17.9844 60.9844
Q16.5469 59.5156 14.5 59.5156
Q12.4531 59.5156 10.9844 60.9844
Q9.51562 62.4531 9.51562 64.5
Q9.51562 66.5469 10.9531 67.9844
Q12.4062 69.4375 14.5 69.4375
M18.5625 46.0469
L18.5625 10.1094
Q18.5625 5.90625 19.1719 4.51562
Q19.7812 3.125 20.9688 2.4375
Q22.1719 1.76562 25.3438 1.76562
L25.3438 0
L3.60938 0
L3.60938 1.76562
Q6.89062 1.76562 8 2.39062
Q9.125 3.03125 9.78125 4.48438
Q10.4531 5.95312 10.4531 10.1094
L10.4531 27.3438
Q10.4531 34.625 10.0156 36.7656
Q9.67188 38.3281 8.9375 38.9375
Q8.20312 39.5469 6.9375 39.5469
Q5.5625 39.5469 3.60938 38.8125
L2.9375 40.5781
L16.4062 46.0469
z
" id="TimesNewRomanPSMT-69"/>
     <path d="
M34.7188 5.03125
Q31.4531 1.60938 28.3281 0.109375
Q25.2031 -1.375 21.5781 -1.375
Q14.2656 -1.375 8.79688 4.75
Q3.32812 10.8906 3.32812 20.5156
Q3.32812 30.125 9.375 38.1094
Q15.4375 46.0938 24.9531 46.0938
Q30.8594 46.0938 34.7188 42.3281
L34.7188 50.5938
Q34.7188 58.25 34.3438 60
Q33.9844 61.7656 33.2031 62.3906
Q32.4219 63.0312 31.25 63.0312
Q29.9844 63.0312 27.875 62.25
L27.25 63.9688
L40.5781 69.4375
L42.7812 69.4375
L42.7812 17.7188
Q42.7812 9.85938 43.1406 8.125
Q43.5 6.39062 44.3125 5.70312
Q45.125 5.03125 46.1875 5.03125
Q47.5156 5.03125 49.7031 5.85938
L50.25 4.15625
L36.9688 -1.375
L34.7188 -1.375
z

M34.7188 8.45312
L34.7188 31.5
Q34.4219 34.8125 32.9531 37.5469
Q31.5 40.2812 29.0781 41.6719
Q26.6562 43.0625 24.3594 43.0625
Q20.0625 43.0625 16.7031 39.2031
Q12.25 34.125 12.25 24.3594
Q12.25 14.5 16.5469 9.25
Q20.8438 4 26.125 4
Q30.5625 4 34.7188 8.45312" id="TimesNewRomanPSMT-64"/>
     <path d="
M16.1562 36.5781
Q24.0312 46.0469 31.1562 46.0469
Q34.8125 46.0469 37.4531 44.2188
Q40.0938 42.3906 41.6562 38.1875
Q42.7188 35.25 42.7188 29.2031
L42.7188 10.1094
Q42.7188 5.85938 43.4062 4.34375
Q43.9531 3.125 45.1406 2.4375
Q46.3438 1.76562 49.5625 1.76562
L49.5625 0
L27.4375 0
L27.4375 1.76562
L28.375 1.76562
Q31.5 1.76562 32.7344 2.70312
Q33.9844 3.65625 34.4688 5.51562
Q34.6719 6.25 34.6719 10.1094
L34.6719 28.4219
Q34.6719 34.5156 33.0781 37.2812
Q31.5 40.0469 27.7344 40.0469
Q21.9219 40.0469 16.1562 33.6875
L16.1562 10.1094
Q16.1562 5.5625 16.7031 4.5
Q17.3906 3.07812 18.5781 2.42188
Q19.7812 1.76562 23.4375 1.76562
L23.4375 0
L1.3125 0
L1.3125 1.76562
L2.29688 1.76562
Q5.71875 1.76562 6.90625 3.48438
Q8.10938 5.21875 8.10938 10.1094
L8.10938 26.7031
Q8.10938 34.7656 7.73438 36.5156
Q7.375 38.2812 6.60938 38.9062
Q5.85938 39.5469 4.59375 39.5469
Q3.21875 39.5469 1.3125 38.8125
L0.59375 40.5781
L14.0625 46.0469
L16.1562 46.0469
z
" id="TimesNewRomanPSMT-6e"/>
     <path d="
M4.04688 26.125
L29.2969 26.125
L29.2969 18.75
L4.04688 18.75
z
" id="TimesNewRomanPSMT-2d"/>
     <path d="
M57.8594 66.2188
L58.5938 50.6875
L56.7344 50.6875
Q56.2031 54.7812 55.2812 56.5469
Q53.7656 59.375 51.25 60.7188
Q48.7344 62.0625 44.625 62.0625
L35.2969 62.0625
L35.2969 11.4688
Q35.2969 5.375 36.625 3.85938
Q38.4844 1.8125 42.3281 1.8125
L44.625 1.8125
L44.625 0
L16.5469 0
L16.5469 1.8125
L18.8906 1.8125
Q23.0938 1.8125 24.8594 4.34375
Q25.9219 5.90625 25.9219 11.4688
L25.9219 62.0625
L17.9688 62.0625
Q13.3281 62.0625 11.375 61.375
Q8.84375 60.4531 7.03125 57.8125
Q5.21875 55.1719 4.89062 50.6875
L3.03125 50.6875
L3.8125 66.2188
z
" id="TimesNewRomanPSMT-54"/>
    </defs>
    <g transform="translate(295.111247851 24.559375)scale(0.25 -0.25)">
     <use xlink:href="#TimesNewRomanPSMT-54"/>
     <use x="57.583984375" xlink:href="#TimesNewRomanPSMT-72"/>
     <use x="90.884765625" xlink:href="#TimesNewRomanPSMT-65"/>
     <use x="135.26953125" xlink:href="#TimesNewRomanPSMT-6e"/>
     <use x="185.26953125" xlink:href="#TimesNewRomanPSMT-64"/>
     <use x="235.26953125" xlink:href="#TimesNewRomanPSMT-20"/>
     <use x="260.26953125" xlink:href="#TimesNewRomanPSMT-43"/>
     <use x="326.96875" xlink:href="#TimesNewRomanPSMT-61"/>
     <use x="371.353515625" xlink:href="#TimesNewRomanPSMT-72"/>
     <use x="404.654296875" xlink:href="#TimesNewRomanPSMT-20"/>
     <use x="429.654296875" xlink:href="#TimesNewRomanPSMT-53"/>
     <use x="485.26953125" xlink:href="#TimesNewRomanPSMT-61"/>
     <use x="529.654296875" xlink:href="#TimesNewRomanPSMT-6c"/>
     <use x="557.4375" xlink:href="#TimesNewRomanPSMT-65"/>
     <use x="601.822265625" xlink:href="#TimesNewRomanPSMT-73"/>
     <use x="640.73828125" xlink:href="#TimesNewRomanPSMT-20"/>
     <use x="665.73828125" xlink:href="#TimesNewRomanPSMT-32"/>
     <use x="715.73828125" xlink:href="#TimesNewRomanPSMT-30"/>
     <use x="765.73828125" xlink:href="#TimesNewRomanPSMT-31"/>
     <use x="811.98828125" xlink:href="#TimesNewRomanPSMT-31"/>
     <use x="861.98828125" xlink:href="#TimesNewRomanPSMT-20"/>
     <use x="886.98828125" xlink:href="#TimesNewRomanPSMT-2d"/>
     <use x="920.2890625" xlink:href="#TimesNewRomanPSMT-20"/>
     <use x="945.2890625" xlink:href="#TimesNewRomanPSMT-44"/>
     <use x="1017.50585938" xlink:href="#TimesNewRomanPSMT-61"/>
     <use x="1061.890625" xlink:href="#TimesNewRomanPSMT-69"/>
     <use x="1089.67382812" xlink:href="#TimesNewRomanPSMT-6c"/>
     <use x="1117.45703125" xlink:href="#TimesNewRomanPSMT-79"/>
    </g>
   </g>
  </g>
 </g>
 <defs>
  <clipPath id="pc3ae031dc6">
   <rect height="418.5" width="613.8" x="134.072575976" y="29.559375"/>
  </clipPath>
 </defs>
</svg>
